<svg xmlns="http://www.w3.org/2000/svg" version="1.0" width="20" height="20" viewBox="0 0 105.000000 105.000000" preserveAspectRatio="xMidYMid meet"><g transform="translate(0.000000,105.000000) scale(0.100000,-0.100000)" fill="#001E62" stroke="none"><path d="M26 1024 c-9 -8 -16 -24 -16 -34 0 -41 25 -50 139 -50 l107 0 53 -312 c29 -172 61 -328 70 -347 32 -64 60 -71 286 -71 181 0 203 2 232 20 18 10 38 29 46 42 18 28 97 407 97 462 0 31 -7 46 -39 77 l-39 39 -210 0 c-207 0 -211 0 -226 -22 -20 -29 -20 -34 4 -58 19 -19 33 -20 210 -20 148 0 192 -3 196 -13 6 -18 -73 -396 -87 -413 -16 -19 -362 -20 -376 -1 -5 6 -31 138 -57 292 -62 362 -71 406 -88 416 -7 5 -75 9 -150 9 -111 0 -140 -3 -152 -16z"></path><path d="M572 654 c-12 -8 -22 -26 -22 -39 0 -41 34 -55 137 -55 80 0 96 3 113 20 11 11 20 27 20 35 0 8 -9 24 -20 35 -17 17 -33 20 -113 20 -68 0 -99 -4 -115 -16z"></path><path d="M586 484 c-19 -18 -21 -55 -4 -72 7 -7 43 -12 90 -12 72 0 79 2 94 25 15 23 15 27 0 50 -15 23 -23 25 -91 25 -54 0 -78 -4 -89 -16z"></path><path d="M477 130 c-14 -11 -29 -29 -32 -40 -9 -28 21 -79 51 -86 82 -21 129 92 54 131 -37 19 -42 19 -73 -5z"></path><path d="M790 143 c-43 -16 -66 -74 -42 -109 10 -15 47 -34 67 -34 24 0 65 46 65 73 0 44 -51 84 -90 70z"></path></g></svg>